Godzilla.Vs.Megaguirus.2000.(DD5.1).XviD-NvadR 
http://www.imdb.com/title/tt0255198/

New monsters and new weapons meet their match in an 
old adversary, Godzilla, in the Japanese science fiction 
spectacular. As the Japanese government tries to perfect 
new sources of energy, they discover that their longtime 
nemesis Godzilla is once again on the rampage, and new 
technology is needed to keep him at bay.

Scientists respond with a gadget called the Dimension Tide, 
a device which can create a black hole whenever and 
wherever needed. However, while this device was intended to 
help ward off Godzilla, it ends up having an unfortunate 
side effect: A test of the Dimension Tide introduced to the 
Earth's ecosystem a strain of gigantic insects, who live in 
the sewers and emerge to wreck havoc. Can Godzilla help defeat 
the bizarre creatures brought to this planet through an 
attempt to finally destroy him?

---------------- SCREENSHOTS --------------- 
http://www.postimg.com/41000/photo-40642.jpg
 
http://www.postimg.com/41000/photo-40643.jpg
 
http://www.postimg.com/41000/photo-40644.jpg
 
http://www.postimg.com/41000/photo-40645.jpg
 
http://www.postimg.com/41000/photo-40646.jpg
 
http://www.postimg.com/41000/photo-40647.jpg
--------------------------------------------

   General

      Complete name : Godzilla.Vs.Megaguirus.2000.(DD5.1).XviD-NvadR.avi
      Format : AVI
      Format/Info : Audio Video Interleave
      File size : 1.10 GiB
      Duration : 1h 45mn
      Overall bit rate : 1 483 Kbps
      Writing application : VirtualDubMod 1.5.10.2 (build 2542/release)
      Writing library : VirtualDubMod build 2542/release

   Video 

      Format : MPEG-4 Visual
      Format profile : AdvancedSimple@L5
      Format settings, BVOP : Yes
      Format settings, QPel : No
      Format settings, GMC : No warppoints
      Format settings, Matrix : Default (H.263)
      Muxing mode : Packed bitstream
      Codec ID : XVID
      Codec ID/Hint : XviD
      Duration : 1h 45mn
      Bit rate : 1 026 Kbps
      Width : 640 pixels
      Height : 272 pixels
      Display aspect ratio : 2.35:1
      Frame rate : 23.976 fps
      Resolution : 24 bits
      Colorimetry : 4:2:0
      Scan type : Progressive
      Bits/(Pixel*Frame) : 0.246
      Stream size : 777 MiB (69%)
      Writing library : XviD 1.2.1 (UTC 2008-12-04)

   Audio 

      Language : Japanese
      Subtitles : English (Hardcoded)
      Other Subs : None
      Format : AC-3
      Format/Info : Audio Coding 3
      Codec ID : 2000
      Duration : 1h 45mn
      Bit rate mode : Constant
      Bit rate : 448 Kbps
      Channel(s) : 6 channels
      Channel positions : Front: L C R, Surround: L R, LFE
      Sampling rate : 48.0 KHz
      Stream size : 339 MiB (30%)
      Alignment : Split accross interleaves
      Interleave, duration : 42 ms (1.00 video frame)
      Interleave, preload duration : 500 ms

   Source

      Region 3 (HongKong) NTSC 720 x 480 (2.35:1)
      448 kb/s AC-3 48000Hz 6 Channel

   Encoders Note

       All black borders removed, production logo's removed.
       
-------------- TORRENT STATS --------------- 
http://torrent-stats.info/d489/12f8f7cc4.png